<?xml version="1.0" encoding="UTF-8" standalone="no"?>
<!-- Created with Inkscape (http://www.inkscape.org/) -->

<svg
   xmlns:dc="http://purl.org/dc/elements/1.1/"
   xmlns:cc="http://creativecommons.org/ns#"
   xmlns:rdf="http://www.w3.org/1999/02/22-rdf-syntax-ns#"
   xmlns:svg="http://www.w3.org/2000/svg"
   xmlns="http://www.w3.org/2000/svg"
   xmlns:sodipodi="http://sodipodi.sourceforge.net/DTD/sodipodi-0.dtd"
   xmlns:inkscape="http://www.inkscape.org/namespaces/inkscape"
   width="1000"
   height="1000"
   id="svg4052"
   version="1.1"
   inkscape:version="0.48.5 r10040"
   sodipodi:docname="ic_launcher.svg">
  <defs
     id="defs4054" />
  <sodipodi:namedview
     id="base"
     pagecolor="#ffffff"
     bordercolor="#666666"
     borderopacity="1.0"
     inkscape:pageopacity="0.0"
     inkscape:pageshadow="2"
     inkscape:zoom="0.35"
     inkscape:cx="539.73033"
     inkscape:cy="643.91237"
     inkscape:document-units="px"
     inkscape:current-layer="layer1"
     showgrid="false"
     inkscape:window-width="1920"
     inkscape:window-height="1029"
     inkscape:window-x="0"
     inkscape:window-y="27"
     inkscape:window-maximized="1" />
  <metadata
     id="metadata4057">
    <rdf:RDF>
      <cc:Work
         rdf:about="">
        <dc:format>image/svg+xml</dc:format>
        <dc:type
           rdf:resource="http://purl.org/dc/dcmitype/StillImage" />
        <dc:title />
      </cc:Work>
    </rdf:RDF>
  </metadata>
  <g
     inkscape:label="Layer 1"
     inkscape:groupmode="layer"
     id="layer1"
     transform="translate(0,-52.362183)">
    <rect
       style="fill:#00bcd4;fill-opacity:1;stroke:#00bcd4;stroke-width:265.62631226;stroke-linejoin:round;stroke-miterlimit:4;stroke-opacity:1;stroke-dasharray:none"
       id="rect3854"
       width="734.37372"
       height="734.37366"
       x="132.81316"
       y="185.17537" />
    <g
       id="g4652"
       transform="matrix(1.7946037,0,0,1.7946038,-108.43723,-204.47528)">
      <path
         sodipodi:type="arc"
         style="fill:#ffffff;fill-opacity:1;stroke:#ffffff;stroke-width:0.112;stroke-miterlimit:4;stroke-opacity:1;stroke-dasharray:none;stroke-dashoffset:0"
         id="path2993-6-4-8"
         sodipodi:cx="276.60471"
         sodipodi:cy="253.33151"
         sodipodi:rx="129.12244"
         sodipodi:ry="79.802048"
         d="m 405.72714,253.33151 c 0,44.07346 -57.81008,79.80205 -129.12243,79.80205 -71.31236,0 -129.12244,-35.72859 -129.12244,-79.80205 0,-44.07345 57.81008,-79.80205 129.12244,-79.80205 71.31235,0 129.12243,35.7286 129.12243,79.80205 z"
         transform="matrix(0.61915254,0,0,0.9713459,67.537495,203.25013)" />
      <path
         sodipodi:nodetypes="csccc"
         inkscape:connector-curvature="0"
         id="path4630"
         d="m 270.16674,281.08225 c -67.06932,97.80686 -44.73399,93.33636 -25.05932,93.46719 17.26792,0.11484 17.53607,61.18487 17.53607,61.18487 0,0 -0.84247,97.88944 -29.87581,89.99694 -125.2735,-22.79978 -93.73444,-213.67112 37.39906,-244.649 z"
         style="fill:#ffffff;stroke:none" />
    </g>
    <g
       id="g4656"
       transform="matrix(1.7946037,0,0,1.7946038,-155.85989,-201.61807)"
       style="fill:#ffffff">
      <path
         transform="matrix(0.61915254,0,0,0.9713459,291.5375,201.25013)"
         d="m 405.72714,253.33151 c 0,44.07346 -57.81008,79.80205 -129.12243,79.80205 -71.31236,0 -129.12244,-35.72859 -129.12244,-79.80205 0,-44.07345 57.81008,-79.80205 129.12244,-79.80205 71.31235,0 129.12243,35.7286 129.12243,79.80205 z"
         sodipodi:ry="79.802048"
         sodipodi:rx="129.12244"
         sodipodi:cy="253.33151"
         sodipodi:cx="276.60471"
         id="path4648"
         style="fill:#ffffff;fill-opacity:1;stroke:#ffffff;stroke-width:0.112;stroke-miterlimit:4;stroke-opacity:1;stroke-dasharray:none;stroke-dashoffset:0"
         sodipodi:type="arc" />
      <path
         style="fill:#ffffff;stroke:none"
         d="m 494.16674,279.08225 c -67.06932,97.80686 -44.73399,93.33636 -25.05932,93.46719 17.26792,0.11484 17.53607,61.18487 17.53607,61.18487 0,0 -0.84247,97.88944 -29.87581,89.99694 -125.2735,-22.79978 -93.73444,-213.67112 37.39906,-244.649 z"
         id="path4650"
         inkscape:connector-curvature="0"
         sodipodi:nodetypes="csccc" />
    </g>
  </g>
</svg>
